<svg width="319" height="643" viewBox="0 0 319 643" fill="none" xmlns="http://www.w3.org/2000/svg">
<g clip-path="url(#clip0_1122_4991)">
<mask id="mask0_1122_4991" style="mask-type:alpha" maskUnits="userSpaceOnUse" x="0" y="-1" width="319" height="723">
<path fill-rule="evenodd" clip-rule="evenodd" d="M167.201 1.83746C162.948 -0.617697 156.052 -0.617695 151.799 1.83746L3.18988 87.6225C-0.0886088 89.515 -0.839929 92.3139 0.935921 94.6219L0.941242 721.604H159.496H159.86H318.415L318.42 94.0973C319.714 91.901 318.844 89.3737 315.811 87.6225L167.201 1.83746Z" fill="url(#paint0_linear_1122_4991)"/>
</mask>
<g mask="url(#mask0_1122_4991)">
<path d="M318.39 721.603L318.395 92.1969L159.49 183.933L159.484 721.603L318.39 721.603Z" fill="black" fill-opacity="0.2"/>
<mask id="mask1_1122_4991" style="mask-type:alpha" maskUnits="userSpaceOnUse" x="0" y="0" width="319" height="184">
<rect width="189.364" height="189.364" rx="10.0036" transform="matrix(0.866044 0.499967 -0.866044 0.499967 159.486 -2.60547)" fill="#FF4D00"/>
</mask>
<g mask="url(#mask1_1122_4991)">
<rect width="189.364" height="189.364" rx="8.89205" transform="matrix(0.866044 0.499967 -0.866044 0.499967 159.486 -2.60547)" fill="white"/>
</g>
</g>
</g>
<defs>
<linearGradient id="paint0_linear_1122_4991" x1="159.424" y1="290.469" x2="159.424" y2="626.97" gradientUnits="userSpaceOnUse">
<stop stop-color="white"/>
<stop offset="1" stop-color="white" stop-opacity="0"/>
</linearGradient>
<clipPath id="clip0_1122_4991">
<rect width="319" height="643" fill="white"/>
</clipPath>
</defs>
</svg>
