<svg width="1274" height="666" viewBox="0 0 1274 666" fill="none" xmlns="http://www.w3.org/2000/svg">
<mask id="mask0_1122_4934" style="mask-type:alpha" maskUnits="userSpaceOnUse" x="44" y="266" width="311" height="400">
<path d="M44.6875 421.144C44.6875 335.46 114.148 266 199.832 266V266C285.515 266 354.976 335.46 354.976 421.144V666H44.6875V421.144Z" fill="url(#paint0_linear_1122_4934)"/>
</mask>
<g mask="url(#mask0_1122_4934)">
<path fill-rule="evenodd" clip-rule="evenodd" d="M87.498 314.072C108.193 303.844 131.498 298.097 156.145 298.097C241.829 298.097 311.289 367.557 311.289 453.241V666H354.916V421.144C354.916 335.46 285.455 266 199.772 266C155.607 266 115.752 284.454 87.498 314.072Z" fill="black" fill-opacity="0.2"/>
<path d="M44.6875 421.144C44.6875 335.46 114.148 266 199.832 266V266C285.515 266 354.976 335.46 354.976 421.144V666H44.6875V421.144Z" fill="white"/>
<path fill-rule="evenodd" clip-rule="evenodd" d="M199.832 266C114.148 266 44.6875 335.46 44.6875 421.144V666L76.7863 643.366V421.144C76.7863 340.88 137.738 274.851 215.881 266.82C210.605 266.278 205.251 266 199.832 266Z" fill="black" fill-opacity="0.2"/>
</g>
<mask id="mask1_1122_4934" style="mask-type:alpha" maskUnits="userSpaceOnUse" x="378" y="0" width="518" height="666">
<path d="M378.404 258.315C378.404 115.651 494.056 0 636.719 0V0C779.382 0 895.034 115.651 895.034 258.315V666H378.404V258.315Z" fill="url(#paint1_linear_1122_4934)"/>
</mask>
<g mask="url(#mask1_1122_4934)">
<path fill-rule="evenodd" clip-rule="evenodd" d="M449.682 80.0415C484.139 63.0122 522.942 53.4426 563.98 53.4426C706.643 53.4426 822.294 169.094 822.294 311.757V666H894.933V258.315C894.933 115.651 779.282 0 636.619 0C563.083 0 496.725 30.7268 449.682 80.0415Z" fill="black" fill-opacity="0.2"/>
<path d="M378.404 258.315C378.404 115.651 494.056 0 636.719 0V0C779.382 0 895.034 115.651 895.034 258.315V666H378.404V258.315Z" fill="white"/>
<path fill-rule="evenodd" clip-rule="evenodd" d="M636.719 0C494.056 0 378.404 115.651 378.404 258.315V666L431.849 628.315V258.315C431.849 124.674 533.334 14.7371 663.441 1.36543C654.657 0.462617 645.742 0 636.719 0Z" fill="black" fill-opacity="0.2"/>
</g>
<mask id="mask2_1122_4934" style="mask-type:alpha" maskUnits="userSpaceOnUse" x="918" y="266" width="311" height="400">
<path d="M918.688 421.144C918.688 335.46 988.148 266 1073.83 266V266C1159.52 266 1228.98 335.46 1228.98 421.144V666H918.688V421.144Z" fill="url(#paint2_linear_1122_4934)"/>
</mask>
<g mask="url(#mask2_1122_4934)">
<path fill-rule="evenodd" clip-rule="evenodd" d="M961.498 314.072C982.193 303.844 1005.5 298.097 1030.14 298.097C1115.83 298.097 1185.29 367.557 1185.29 453.241V666H1228.92V421.144C1228.92 335.46 1159.46 266 1073.77 266C1029.61 266 989.752 284.454 961.498 314.072Z" fill="black" fill-opacity="0.2"/>
<path d="M918.688 421.144C918.688 335.46 988.148 266 1073.83 266V266C1159.52 266 1228.98 335.46 1228.98 421.144V666H918.688V421.144Z" fill="white"/>
<path fill-rule="evenodd" clip-rule="evenodd" d="M1073.83 266C988.148 266 918.688 335.46 918.688 421.144V666L950.786 643.366V421.144C950.786 340.88 1011.74 274.851 1089.88 266.82C1084.61 266.278 1079.25 266 1073.83 266Z" fill="black" fill-opacity="0.2"/>
</g>
<defs>
<linearGradient id="paint0_linear_1122_4934" x1="199.832" y1="266" x2="199.832" y2="666" gradientUnits="userSpaceOnUse">
<stop offset="0.541323" stop-color="white"/>
<stop offset="1" stop-color="white" stop-opacity="0"/>
</linearGradient>
<linearGradient id="paint1_linear_1122_4934" x1="636.719" y1="0" x2="636.719" y2="666" gradientUnits="userSpaceOnUse">
<stop offset="0.541323" stop-color="white"/>
<stop offset="1" stop-color="white" stop-opacity="0"/>
</linearGradient>
<linearGradient id="paint2_linear_1122_4934" x1="1073.83" y1="266" x2="1073.83" y2="666" gradientUnits="userSpaceOnUse">
<stop offset="0.541323" stop-color="white"/>
<stop offset="1" stop-color="white" stop-opacity="0"/>
</linearGradient>
</defs>
</svg>
