<svg width="300" height="300" viewBox="0 0 300 300" fill="none" xmlns="http://www.w3.org/2000/svg">
<rect width="300" height="300" fill="white"/>
<path d="M120.222 164.728L109.94 134.711H100.283L90 164.728H95.3173L98.1714 156.118H112.051L114.905 164.728H120.222ZM105.131 135.343L110.604 151.773H99.618L105.131 135.343Z" fill="black"/>
<path d="M126.728 143.44H121.88V164.728H126.767V152.8C126.767 149.088 128.604 147.824 132.397 147.824H133.726V142.966C129.66 142.966 127.549 145.414 126.728 148.614V143.44Z" fill="black"/>
<path d="M145.018 165.202C150.062 165.202 154.089 162.437 155.144 157.382H150.218C149.436 160.147 147.794 161.727 145.018 161.727C141.499 161.727 139.427 158.804 139.427 154.064C139.427 149.404 141.46 146.441 145.018 146.441C147.833 146.441 149.436 148.416 149.983 150.865H154.949C154.05 146.125 150.414 142.966 145.018 142.966C138.684 142.966 134.462 147.429 134.462 154.064C134.462 160.7 138.645 165.202 145.018 165.202Z" fill="black"/>
<path d="M169.401 142.966C165.765 142.966 163.693 145.178 162.716 147.784V134.711H157.868V164.728H162.755V152.366C162.755 148.298 164.475 146.481 167.212 146.481C169.988 146.481 171.669 148.258 171.669 152.287V152.366V164.728H176.556V151.418V151.339C176.556 146.599 174.25 142.966 169.401 142.966Z" fill="black"/>
<path d="M203.504 164.215L199.985 143.44H191.305L187.786 164.215L183.408 143.44H178.833L183.368 164.728H192.204L195.645 143.914L199.086 164.728H207.922L212.457 143.44H207.883L203.504 164.215Z" fill="black"/>
<path d="M223.616 142.966C218.455 142.966 214.858 145.612 214.35 149.799H219.276C219.55 148.021 220.996 146.441 223.616 146.441C226.548 146.441 227.956 148.456 227.956 150.944V151.023V151.299L222.365 151.892C218.377 152.287 213.646 153.353 213.646 158.29C213.646 162.319 216.852 165.202 220.84 165.202C224.867 165.202 226.666 163.306 227.995 160.502V164.728H232.843V151.22V151.141C232.843 146.797 230.106 142.966 223.616 142.966ZM222.717 162.082C220.488 162.082 218.611 160.7 218.611 158.29C218.611 155.526 221.505 155.131 224.163 154.815L227.956 154.42V155.684C227.956 159.238 226.196 162.082 222.717 162.082Z" fill="black"/>
<path d="M245.386 161.727L238.974 143.44H234.048L240.812 162.437H245.152L242.063 172.47H247.106L256.138 143.44H251.016L245.386 161.727Z" fill="black"/>
<path d="M33.75 149.805C33.75 137.279 43.8236 127.125 56.25 127.125C68.6764 127.125 78.75 137.279 78.75 149.805V172.103C78.7379 159.686 68.6689 149.625 56.25 149.625C43.8236 149.625 33.75 159.699 33.75 172.125L33.75 149.805Z" fill="black"/>
</svg>
