<svg width="160" height="54" viewBox="0 0 160 54" fill="none" xmlns="http://www.w3.org/2000/svg">
<path d="M65.839 34.2556L60.3883 18.8867H55.2691L49.8184 34.2556H52.637L54.1499 29.8472H61.5074L63.0204 34.2556H65.839ZM57.839 19.2103L60.7406 27.6227H54.9168L57.839 19.2103Z" fill="white"/>
<path d="M69.2875 23.3558H66.7176V34.2556H69.3082V28.1485C69.3082 26.2476 70.2823 25.6005 72.2927 25.6005H72.9973V23.1132C70.8419 23.1132 69.7227 24.3669 69.2875 26.0049V23.3558Z" fill="white"/>
<path d="M78.983 34.4983C81.6566 34.4983 83.7913 33.0827 84.3509 30.4943H81.7395C81.325 31.9098 80.4545 32.7187 78.983 32.7187C77.1178 32.7187 76.0193 31.2223 76.0193 28.7956C76.0193 26.4094 77.097 24.8927 78.983 24.8927C80.4753 24.8927 81.325 25.9038 81.6152 27.1576H84.2473C83.7706 24.7309 81.8431 23.1132 78.983 23.1132C75.6256 23.1132 73.3872 25.3983 73.3872 28.7956C73.3872 32.1929 75.6048 34.4983 78.983 34.4983Z" fill="white"/>
<path d="M91.9085 23.1132C89.981 23.1132 88.8826 24.2456 88.3645 25.5803V18.8867H85.7945V34.2556H88.3852V27.926C88.3852 25.8432 89.2971 24.9129 90.7479 24.9129C92.2194 24.9129 93.1106 25.8229 93.1106 27.8856V27.926V34.2556H95.7012V27.4407V27.4003C95.7012 24.9736 94.4784 23.1132 91.9085 23.1132Z" fill="white"/>
<path d="M109.986 33.9927L108.121 23.3558H103.52L101.654 33.9927L99.333 23.3558H96.9081L99.3123 34.2556H103.996L105.82 23.5985L107.644 34.2556H112.328L114.732 23.3558H112.307L109.986 33.9927Z" fill="white"/>
<path d="M120.647 23.1132C117.911 23.1132 116.005 24.468 115.735 26.6116H118.347C118.492 25.7016 119.259 24.8927 120.647 24.8927C122.202 24.8927 122.948 25.924 122.948 27.198V27.2385V27.38L119.984 27.6834C117.87 27.8856 115.362 28.4316 115.362 30.9594C115.362 33.022 117.062 34.4983 119.176 34.4983C121.31 34.4983 122.264 33.5276 122.968 32.0918V34.2556H125.538V27.3396V27.2992C125.538 25.0747 124.088 23.1132 120.647 23.1132ZM120.171 32.9007C118.989 32.9007 117.994 32.1929 117.994 30.9594C117.994 29.5438 119.528 29.3416 120.937 29.1798L122.948 28.9776V29.6247C122.948 31.4447 122.015 32.9007 120.171 32.9007Z" fill="white"/>
<path d="M132.187 32.7187L128.788 23.3558H126.177L129.763 33.0827H132.063L130.426 38.2191H133.099L137.887 23.3558H135.172L132.187 32.7187Z" fill="white"/>
<path d="M20 26.6122C20 20.1989 25.3399 15 31.9271 15C38.5142 15 43.8542 20.1989 43.8542 26.6122V38.0285C43.8477 31.6715 38.5103 26.52 31.9271 26.52C25.3399 26.52 20 31.6777 20 38.04L20 26.6122Z" fill="white"/>
</svg>
