<svg width="300" height="300" viewBox="0 0 300 300" fill="none" xmlns="http://www.w3.org/2000/svg">
<rect width="300" height="300" fill="black"/>
<path d="M123.447 163.227L113.227 134.41H103.628L93.4082 163.227H98.6932L101.53 154.961H115.325L118.162 163.227H123.447ZM108.447 135.017L113.887 150.79H102.968L108.447 135.017Z" fill="white"/>
<path d="M129.913 142.79H125.094V163.227H129.952V151.776C129.952 148.212 131.778 146.998 135.548 146.998H136.869V142.335C132.827 142.335 130.729 144.686 129.913 147.757V142.79Z" fill="white"/>
<path d="M148.092 163.682C153.105 163.682 157.107 161.028 158.157 156.174H153.26C152.483 158.828 150.851 160.345 148.092 160.345C144.595 160.345 142.535 157.539 142.535 152.989C142.535 148.515 144.556 145.671 148.092 145.671C150.89 145.671 152.483 147.567 153.027 149.918H157.962C157.069 145.368 153.455 142.335 148.092 142.335C141.797 142.335 137.6 146.619 137.6 152.989C137.6 159.359 141.758 163.682 148.092 163.682Z" fill="white"/>
<path d="M172.327 142.335C168.713 142.335 166.654 144.458 165.682 146.961V134.41H160.864V163.227H165.721V151.359C165.721 147.453 167.431 145.709 170.151 145.709C172.91 145.709 174.581 147.416 174.581 151.283V151.359V163.227H179.439V150.449V150.373C179.439 145.823 177.146 142.335 172.327 142.335Z" fill="white"/>
<path d="M206.222 162.734L202.725 142.79H194.098L190.6 162.734L186.248 142.79H181.702L186.209 163.227H194.992L198.411 143.245L201.831 163.227H210.613L215.121 142.79H210.574L206.222 162.734Z" fill="white"/>
<path d="M226.212 142.335C221.083 142.335 217.508 144.875 217.002 148.894H221.899C222.171 147.188 223.609 145.671 226.212 145.671C229.127 145.671 230.526 147.605 230.526 149.994V150.07V150.335L224.969 150.904C221.005 151.283 216.303 152.307 216.303 157.046C216.303 160.914 219.489 163.682 223.453 163.682C227.456 163.682 229.243 161.862 230.565 159.17V163.227H235.383V150.259V150.183C235.383 146.013 232.663 142.335 226.212 142.335ZM225.318 160.686C223.103 160.686 221.238 159.359 221.238 157.046C221.238 154.392 224.114 154.013 226.756 153.71L230.526 153.331V154.544C230.526 157.956 228.777 160.686 225.318 160.686Z" fill="white"/>
<path d="M247.85 160.345L241.477 142.79H236.581L243.304 161.028H247.617L244.547 170.658H249.56L258.537 142.79H253.446L247.85 160.345Z" fill="white"/>
<path d="M37.5 148.898C37.5 136.873 47.5124 127.125 59.8633 127.125C72.2142 127.125 82.2266 136.873 82.2266 148.898V170.303C82.2145 158.384 72.2067 148.725 59.8633 148.725C47.5124 148.725 37.5 158.396 37.5 170.325L37.5 148.898Z" fill="white"/>
</svg>
