<svg width="400" height="400" viewBox="0 0 400 400" fill="none" xmlns="http://www.w3.org/2000/svg">
<mask id="mask0_1122_4974" style="mask-type:alpha" maskUnits="userSpaceOnUse" x="44" y="0" width="311" height="400">
<path d="M44.6875 155.144C44.6875 69.4603 114.148 0 199.832 0V0C285.515 0 354.976 69.4603 354.976 155.144V400H44.6875V155.144Z" fill="url(#paint0_linear_1122_4974)"/>
</mask>
<g mask="url(#mask0_1122_4974)">
<path fill-rule="evenodd" clip-rule="evenodd" d="M87.498 48.0721C108.193 37.8444 131.498 32.097 156.145 32.097C241.829 32.097 311.289 101.557 311.289 187.241V400H354.916V155.144C354.916 69.4603 285.455 0 199.772 0C155.607 0 115.752 18.4542 87.498 48.0721Z" fill="black" fill-opacity="0.2"/>
<path d="M44.6875 155.144C44.6875 69.4603 114.148 0 199.832 0V0C285.515 0 354.976 69.4603 354.976 155.144V400H44.6875V155.144Z" fill="white"/>
<path fill-rule="evenodd" clip-rule="evenodd" d="M199.832 0C114.148 0 44.6875 69.4603 44.6875 155.144V400L76.7863 377.366V155.144C76.7863 74.8795 137.738 8.85112 215.881 0.820076C210.605 0.277848 205.251 0 199.832 0Z" fill="black" fill-opacity="0.2"/>
</g>
<defs>
<linearGradient id="paint0_linear_1122_4974" x1="199.832" y1="0" x2="199.832" y2="400" gradientUnits="userSpaceOnUse">
<stop offset="0.541323" stop-color="white"/>
<stop offset="1" stop-color="white" stop-opacity="0"/>
</linearGradient>
</defs>
</svg>
