<svg width="300" height="300" viewBox="0 0 300 300" fill="none" xmlns="http://www.w3.org/2000/svg">
<rect width="300" height="300" rx="150" fill="white"/>
<path d="M121.81 163.924L112.075 135.508H102.933L93.1992 163.924H98.2329L100.935 155.773H114.074L116.776 163.924H121.81ZM107.523 136.106L112.705 151.66H102.304L107.523 136.106Z" fill="black"/>
<path d="M127.968 143.771H123.379V163.924H128.005V152.632C128.005 149.118 129.745 147.921 133.335 147.921H134.593V143.322C130.744 143.322 128.745 145.641 127.968 148.669V143.771Z" fill="black"/>
<path d="M145.283 164.373C150.058 164.373 153.87 161.756 154.869 156.97H150.206C149.465 159.587 147.911 161.083 145.283 161.083C141.952 161.083 139.99 158.316 139.99 153.829C139.99 149.417 141.915 146.613 145.283 146.613C147.948 146.613 149.465 148.482 149.984 150.8H154.684C153.833 146.314 150.391 143.322 145.283 143.322C139.287 143.322 135.29 147.547 135.29 153.829C135.29 160.11 139.25 164.373 145.283 164.373Z" fill="black"/>
<path d="M168.366 143.322C164.924 143.322 162.962 145.416 162.037 147.884V135.508H157.447V163.924H162.074V152.221C162.074 148.37 163.702 146.65 166.293 146.65C168.921 146.65 170.513 148.333 170.513 152.146V152.221V163.924H175.139V151.324V151.249C175.139 146.762 172.955 143.322 168.366 143.322Z" fill="black"/>
<path d="M200.649 163.438L197.318 143.771H189.102L185.77 163.438L181.625 143.771H177.295L181.588 163.924H189.953L193.21 144.22L196.467 163.924H204.832L209.125 143.771H204.795L200.649 163.438Z" fill="black"/>
<path d="M219.689 143.322C214.803 143.322 211.398 145.827 210.917 149.791H215.581C215.84 148.108 217.209 146.613 219.689 146.613C222.465 146.613 223.797 148.52 223.797 150.875V150.95V151.212L218.505 151.772C214.729 152.146 210.251 153.156 210.251 157.83C210.251 161.643 213.286 164.373 217.061 164.373C220.873 164.373 222.576 162.578 223.834 159.923V163.924H228.424V151.137V151.062C228.424 146.949 225.833 143.322 219.689 143.322ZM218.838 161.419C216.728 161.419 214.951 160.11 214.951 157.83C214.951 155.212 217.69 154.838 220.207 154.539L223.797 154.165V155.362C223.797 158.727 222.132 161.419 218.838 161.419Z" fill="black"/>
<path d="M240.298 161.083L234.228 143.771H229.565L235.968 161.756H240.076L237.152 171.253H241.927L250.477 143.771H245.628L240.298 161.083Z" fill="black"/>
<path d="M39.9492 149.795C39.9492 137.937 49.4855 128.324 61.2492 128.324C73.0129 128.324 82.5492 137.937 82.5492 149.795V170.903C82.5377 159.149 73.0058 149.624 61.2492 149.624C49.4856 149.624 39.9492 159.161 39.9492 170.924L39.9492 149.795Z" fill="black"/>
</svg>
