<svg width="300" height="300" viewBox="0 0 300 300" fill="none" xmlns="http://www.w3.org/2000/svg">
<rect width="300" height="300" rx="150" fill="black"/>
<path d="M124.862 162.877L115.187 135.598H106.101L96.4258 162.877H101.429L104.114 155.052H117.174L119.859 162.877H124.862ZM110.662 136.172L115.813 151.104H105.475L110.662 136.172Z" fill="white"/>
<path d="M130.984 143.53H126.422V162.877H131.02V152.037C131.02 148.663 132.749 147.515 136.318 147.515H137.568V143.1C133.743 143.1 131.756 145.325 130.984 148.232V143.53Z" fill="white"/>
<path d="M148.193 163.308C152.939 163.308 156.728 160.796 157.721 156.201H153.086C152.35 158.714 150.805 160.149 148.193 160.149C144.882 160.149 142.933 157.493 142.933 153.186C142.933 148.95 144.845 146.258 148.193 146.258C150.842 146.258 152.35 148.053 152.865 150.278H157.537C156.691 145.971 153.27 143.1 148.193 143.1C142.234 143.1 138.261 147.156 138.261 153.186C138.261 159.216 142.197 163.308 148.193 163.308Z" fill="white"/>
<path d="M171.136 143.1C167.715 143.1 165.765 145.11 164.845 147.479V135.598H160.284V162.877H164.882V151.642C164.882 147.945 166.501 146.294 169.076 146.294C171.688 146.294 173.269 147.909 173.269 151.571V151.642V162.877H177.868V150.781V150.709C177.868 146.402 175.697 143.1 171.136 143.1Z" fill="white"/>
<path d="M203.223 162.411L199.912 143.53H191.745L188.434 162.411L184.314 143.53H180.01L184.277 162.877H192.591L195.829 143.961L199.066 162.877H207.38L211.647 143.53H207.343L203.223 162.411Z" fill="white"/>
<path d="M222.147 143.1C217.291 143.1 213.907 145.505 213.428 149.309H218.064C218.321 147.694 219.682 146.258 222.147 146.258C224.906 146.258 226.23 148.089 226.23 150.35V150.422V150.673L220.97 151.212C217.217 151.571 212.766 152.54 212.766 157.027C212.766 160.688 215.783 163.308 219.535 163.308C223.324 163.308 225.016 161.585 226.267 159.037V162.877H230.829V150.602V150.53C230.829 146.581 228.254 143.1 222.147 143.1ZM221.301 160.472C219.204 160.472 217.438 159.216 217.438 157.027C217.438 154.514 220.16 154.155 222.662 153.868L226.23 153.509V154.658C226.23 157.888 224.575 160.472 221.301 160.472Z" fill="white"/>
<path d="M242.631 160.149L236.598 143.53H231.963L238.327 160.796H242.41L239.504 169.913H244.25L252.747 143.53H247.928L242.631 160.149Z" fill="white"/>
<path d="M43.5 149.311C43.5 137.927 52.9784 128.699 64.6706 128.699C76.3627 128.699 85.8411 137.927 85.8411 149.311V169.575C85.8297 158.291 76.3557 149.147 64.6706 149.147C52.9784 149.147 43.5 158.302 43.5 169.595L43.5 149.311Z" fill="white"/>
</svg>
